<?xml version="1.0" encoding="UTF-8" standalone="no"?>
<!DOCTYPE svg PUBLIC "-//W3C//DTD SVG 1.1//EN"
 "http://www.w3.org/Graphics/SVG/1.1/DTD/svg11.dtd">
<!-- Generated by graphviz version 14.1.5 (20260411.2331)
 -->
<!-- Title: G Pages: 1 -->
<svg width="1340pt" height="367pt"
 viewBox="0.00 0.00 1340.00 367.00" xmlns="http://www.w3.org/2000/svg" xmlns:xlink="http://www.w3.org/1999/xlink">
<g id="graph0" class="graph" transform="scale(1 1) rotate(0) translate(4 363.03)">
<title>G</title><style>.edge>path:hover{stroke-width:8}</style>
<polygon fill="white" stroke="none" points="-4,4 -4,-363.03 1336.35,-363.03 1336.35,4 -4,4"/>
<!-- app_core -->
<g id="node1" class="node">
<title>app_core</title><style>.edge>path:hover{stroke-width:8}</style>
<ellipse fill="#d02424" stroke="black" cx="797.91" cy="-341.03" rx="31.66" ry="18"/>
<text xml:space="preserve" text-anchor="middle" x="797.91" y="-337.15" font-family="Helvetica,sans-Serif" font-size="10.00" fill="#ffffff">app.core</text>
</g>
<!-- app_main -->
<g id="node3" class="node">
<title>app_main</title><style>.edge>path:hover{stroke-width:8}</style>
<ellipse fill="#a44646" stroke="black" cx="1144.22" cy="-318.03" rx="32.99" ry="18"/>
<text xml:space="preserve" text-anchor="middle" x="1144.22" y="-314.15" font-family="Helvetica,sans-Serif" font-size="10.00" fill="#ffffff">app.main</text>
</g>
<!-- app_core&#45;&gt;app_main -->
<g id="edge1" class="edge">
<title>app_core&#45;&gt;app_main</title><style>.edge>path:hover{stroke-width:8}</style>
<path fill="none" stroke="black" d="M921.3,-341.03C983.58,-334.94 1055.64,-327.38 1100.33,-322.62"/>
<polygon fill="#d02424" stroke="black" points="1100.55,-326.12 1110.12,-321.58 1099.8,-319.16 1100.55,-326.12"/>
</g>
<!-- app_routers -->
<g id="node4" class="node">
<title>app_routers</title><style>.edge>path:hover{stroke-width:8}</style>
<ellipse fill="#a13535" stroke="black" cx="1036.92" cy="-295.03" rx="38.31" ry="18"/>
<text xml:space="preserve" text-anchor="middle" x="1036.92" y="-291.15" font-family="Helvetica,sans-Serif" font-size="10.00" fill="#ffffff">app.routers</text>
</g>
<!-- app_core&#45;&gt;app_routers -->
<g id="edge2" class="edge">
<title>app_core&#45;&gt;app_routers</title><style>.edge>path:hover{stroke-width:8}</style>
<path fill="none" stroke="black" d="M829.92,-342.68C854.28,-343.58 889.03,-343.98 919.3,-341.03"/>
<path fill="none" stroke="black" d="M921.3,-341.03C950.04,-338.22 980.26,-325.64 1002.45,-314.34"/>
<polygon fill="#d02424" stroke="black" points="1003.8,-317.58 1011.01,-309.82 1000.54,-311.39 1003.8,-317.58"/>
</g>
<!-- app_services -->
<g id="node6" class="node">
<title>app_services</title><style>.edge>path:hover{stroke-width:8}</style>
<ellipse fill="#732626" stroke="black" cx="920.3" cy="-295.03" rx="42.31" ry="18"/>
<text xml:space="preserve" text-anchor="middle" x="920.3" y="-291.15" font-family="Helvetica,sans-Serif" font-size="10.00" fill="#ffffff">app.services</text>
</g>
<!-- app_core&#45;&gt;app_services -->
<g id="edge3" class="edge">
<title>app_core&#45;&gt;app_services</title><style>.edge>path:hover{stroke-width:8}</style>
<path fill="none" stroke="black" d="M824.74,-331.16C840.07,-325.3 859.88,-317.73 877.4,-311.04"/>
<polygon fill="#d02424" stroke="black" points="878.45,-314.38 886.54,-307.54 875.95,-307.84 878.45,-314.38"/>
</g>
<!-- app_lambda_handler -->
<g id="node2" class="node">
<title>app_lambda_handler</title><style>.edge>path:hover{stroke-width:8}</style>
<ellipse fill="#9f5656" stroke="black" cx="1272.78" cy="-318.03" rx="59.57" ry="21.57"/>
<text xml:space="preserve" text-anchor="middle" x="1272.78" y="-319.78" font-family="Helvetica,sans-Serif" font-size="10.00" fill="#ffffff">app.</text>
<text xml:space="preserve" text-anchor="middle" x="1272.78" y="-308.53" font-family="Helvetica,sans-Serif" font-size="10.00" fill="#ffffff">lambda_handler</text>
</g>
<!-- app_main&#45;&gt;app_lambda_handler -->
<g id="edge4" class="edge">
<title>app_main&#45;&gt;app_lambda_handler</title><style>.edge>path:hover{stroke-width:8}</style>
<path fill="none" stroke="black" d="M1177.48,-318.03C1184.93,-318.03 1193.15,-318.03 1201.53,-318.03"/>
<polygon fill="#a44646" stroke="black" points="1201.48,-321.53 1211.48,-318.03 1201.48,-314.53 1201.48,-321.53"/>
</g>
<!-- app_routers&#45;&gt;app_main -->
<g id="edge5" class="edge">
<title>app_routers&#45;&gt;app_main</title><style>.edge>path:hover{stroke-width:8}</style>
<path fill="none" stroke="black" d="M1072.1,-302.49C1081.6,-304.57 1092.01,-306.84 1101.87,-309"/>
<polygon fill="#a13535" stroke="black" points="1101.11,-312.41 1111.62,-311.13 1102.6,-305.57 1101.11,-312.41"/>
</g>
<!-- app_schemas -->
<g id="node5" class="node">
<title>app_schemas</title><style>.edge>path:hover{stroke-width:8}</style>
<ellipse fill="#b42d2d" stroke="black" cx="797.91" cy="-249.03" rx="44.08" ry="18"/>
<text xml:space="preserve" text-anchor="middle" x="797.91" y="-245.15" font-family="Helvetica,sans-Serif" font-size="10.00" fill="#ffffff">app.schemas</text>
</g>
<!-- app_schemas&#45;&gt;app_routers -->
<g id="edge6" class="edge">
<title>app_schemas&#45;&gt;app_routers</title><style>.edge>path:hover{stroke-width:8}</style>
<path fill="none" stroke="black" d="M842.13,-251.24C875.42,-253.62 922.39,-258.43 962.6,-268.03 974.08,-270.77 986.23,-274.76 997.26,-278.84"/>
<polygon fill="#b42d2d" stroke="black" points="995.85,-282.05 1006.44,-282.37 998.36,-275.52 995.85,-282.05"/>
</g>
<!-- app_schemas&#45;&gt;app_services -->
<g id="edge7" class="edge">
<title>app_schemas&#45;&gt;app_services</title><style>.edge>path:hover{stroke-width:8}</style>
<path fill="none" stroke="black" d="M830.86,-261.23C845.09,-266.67 862.06,-273.16 877.3,-278.98"/>
<polygon fill="#b42d2d" stroke="black" points="876.03,-282.24 886.62,-282.54 878.53,-275.7 876.03,-282.24"/>
</g>
<!-- app_services&#45;&gt;app_routers -->
<g id="edge8" class="edge">
<title>app_services&#45;&gt;app_routers</title><style>.edge>path:hover{stroke-width:8}</style>
<path fill="none" stroke="black" d="M963,-295.03C970.74,-295.03 978.9,-295.03 986.83,-295.03"/>
<polygon fill="#732626" stroke="black" points="986.72,-298.53 996.72,-295.03 986.72,-291.53 986.72,-298.53"/>
</g>
<!-- x12_edi_tools -->
<g id="node7" class="node">
<title>x12_edi_tools</title><style>.edge>path:hover{stroke-width:8}</style>
<ellipse fill="#04b3b3" stroke="black" cx="635.86" cy="-148.03" rx="44.97" ry="18"/>
<text xml:space="preserve" text-anchor="middle" x="635.86" y="-144.15" font-family="Helvetica,sans-Serif" font-size="10.00" fill="#ffffff">x12_edi_tools</text>
</g>
<!-- x12_edi_tools&#45;&gt;app_schemas -->
<g id="edge9" class="edge">
<title>x12_edi_tools&#45;&gt;app_schemas</title><style>.edge>path:hover{stroke-width:8}</style>
<path fill="none" stroke="black" d="M717.83,-257.03C727.35,-259.41 737.69,-259.85 747.66,-259.25"/>
<polygon fill="#04b3b3" stroke="black" points="748.01,-262.73 757.61,-258.26 747.31,-255.76 748.01,-262.73"/>
<path fill="none" stroke="black" d="M642.18,-166.1C651.7,-194.25 674.71,-246.48 716.83,-257.03"/>
</g>
<!-- x12_edi_tools&#45;&gt;app_services -->
<g id="edge10" class="edge">
<title>x12_edi_tools&#45;&gt;app_services</title><style>.edge>path:hover{stroke-width:8}</style>
<path fill="none" stroke="black" d="M644.95,-165.96C662.41,-204.15 703.13,-290.43 716.83,-295.03"/>
<path fill="none" stroke="black" d="M717.83,-295.03C767.53,-311.72 828.11,-308.86 869.78,-303.63"/>
<polygon fill="#04b3b3" stroke="black" points="870.07,-307.12 879.51,-302.31 869.13,-300.18 870.07,-307.12"/>
</g>
<!-- x12_edi_tools_common -->
<g id="node8" class="node">
<title>x12_edi_tools_common</title><style>.edge>path:hover{stroke-width:8}</style>
<ellipse fill="#0ce9e9" stroke="black" cx="55.86" cy="-212.03" rx="55.86" ry="21.57"/>
<text xml:space="preserve" text-anchor="middle" x="55.86" y="-213.78" font-family="Helvetica,sans-Serif" font-size="10.00" fill="#000000">x12_edi_tools.</text>
<text xml:space="preserve" text-anchor="middle" x="55.86" y="-202.53" font-family="Helvetica,sans-Serif" font-size="10.00" fill="#000000">common</text>
</g>
<!-- x12_edi_tools_common&#45;&gt;app_services -->
<g id="edge11" class="edge">
<title>x12_edi_tools_common&#45;&gt;app_services</title><style>.edge>path:hover{stroke-width:8}</style>
<path fill="none" stroke="black" d="M352.31,-345.03C417.03,-347.51 433.66,-352.22 498.03,-345.03"/>
</g>
<!-- x12_edi_tools_common&#45;&gt;x12_edi_tools -->
<g id="edge12" class="edge">
<title>x12_edi_tools_common&#45;&gt;x12_edi_tools</title><style>.edge>path:hover{stroke-width:8}</style>
<path fill="none" stroke="black" d="M65.33,-190.49C83.17,-148.77 129.13,-58.62 202.58,-31.03"/>
<path fill="none" stroke="black" d="M204.58,-31.03C351.1,24.01 414.18,1.5 554.89,-67.03 580.01,-79.26 601.77,-102.68 616.22,-121.2"/>
<polygon fill="#0ce9e9" stroke="black" points="613.38,-123.25 622.19,-129.15 618.98,-119.05 613.38,-123.25"/>
</g>
<!-- x12_edi_tools_models -->
<g id="node11" class="node">
<title>x12_edi_tools_models</title><style>.edge>path:hover{stroke-width:8}</style>
<ellipse fill="#0bdfdf" stroke="black" cx="203.58" cy="-212.03" rx="55.86" ry="21.57"/>
<text xml:space="preserve" text-anchor="middle" x="203.58" y="-213.78" font-family="Helvetica,sans-Serif" font-size="10.00" fill="#000000">x12_edi_tools.</text>
<text xml:space="preserve" text-anchor="middle" x="203.58" y="-202.53" font-family="Helvetica,sans-Serif" font-size="10.00" fill="#000000">models</text>
</g>
<!-- x12_edi_tools_common&#45;&gt;x12_edi_tools_models -->
<g id="edge13" class="edge">
<title>x12_edi_tools_common&#45;&gt;x12_edi_tools_models</title><style>.edge>path:hover{stroke-width:8}</style>
<path fill="none" stroke="black" d="M111.95,-212.03C119.84,-212.03 128.03,-212.03 136.11,-212.03"/>
<polygon fill="#0ce9e9" stroke="black" points="135.9,-215.53 145.9,-212.03 135.9,-208.53 135.9,-215.53"/>
</g>
<!-- x12_edi_tools_parser -->
<g id="node12" class="node">
<title>x12_edi_tools_parser</title><style>.edge>path:hover{stroke-width:8}</style>
<ellipse fill="#2bacac" stroke="black" cx="351.31" cy="-81.03" rx="55.86" ry="21.57"/>
<text xml:space="preserve" text-anchor="middle" x="351.31" y="-82.78" font-family="Helvetica,sans-Serif" font-size="10.00" fill="#000000">x12_edi_tools.</text>
<text xml:space="preserve" text-anchor="middle" x="351.31" y="-71.53" font-family="Helvetica,sans-Serif" font-size="10.00" fill="#000000">parser</text>
</g>
<!-- x12_edi_tools_common&#45;&gt;x12_edi_tools_parser -->
<g id="edge14" class="edge">
<title>x12_edi_tools_common&#45;&gt;x12_edi_tools_parser</title><style>.edge>path:hover{stroke-width:8}</style>
<path fill="none" stroke="black" d="M204.58,-31.03C223.44,-23.94 270.56,-42.51 306.15,-58.99"/>
<polygon fill="#0ce9e9" stroke="black" points="304.41,-62.04 314.95,-63.14 307.4,-55.71 304.41,-62.04"/>
</g>
<!-- x12_edi_tools_validator -->
<g id="node14" class="node">
<title>x12_edi_tools_validator</title><style>.edge>path:hover{stroke-width:8}</style>
<ellipse fill="#1eaeae" stroke="black" cx="499.03" cy="-295.03" rx="55.86" ry="21.57"/>
<text xml:space="preserve" text-anchor="middle" x="499.03" y="-296.78" font-family="Helvetica,sans-Serif" font-size="10.00" fill="#000000">x12_edi_tools.</text>
<text xml:space="preserve" text-anchor="middle" x="499.03" y="-285.53" font-family="Helvetica,sans-Serif" font-size="10.00" fill="#000000">validator</text>
</g>
<!-- x12_edi_tools_common&#45;&gt;x12_edi_tools_validator -->
<g id="edge15" class="edge">
<title>x12_edi_tools_common&#45;&gt;x12_edi_tools_validator</title><style>.edge>path:hover{stroke-width:8}</style>
<path fill="none" stroke="black" d="M352.31,-345.03C387.52,-342.07 425.2,-328.85 453.42,-316.74"/>
<polygon fill="#0ce9e9" stroke="black" points="454.63,-320.03 462.37,-312.79 451.81,-313.63 454.63,-320.03"/>
<path fill="none" stroke="black" d="M79.3,-231.73C126.5,-270.94 240.78,-354.23 350.31,-345.03"/>
</g>
<!-- x12_edi_tools_config -->
<g id="node9" class="node">
<title>x12_edi_tools_config</title><style>.edge>path:hover{stroke-width:8}</style>
<ellipse fill="#3bcece" stroke="black" cx="499.03" cy="-169.03" rx="55.86" ry="21.57"/>
<text xml:space="preserve" text-anchor="middle" x="499.03" y="-170.78" font-family="Helvetica,sans-Serif" font-size="10.00" fill="#000000">x12_edi_tools.</text>
<text xml:space="preserve" text-anchor="middle" x="499.03" y="-159.53" font-family="Helvetica,sans-Serif" font-size="10.00" fill="#000000">config</text>
</g>
<!-- x12_edi_tools_config&#45;&gt;app_schemas -->
<g id="edge16" class="edge">
<title>x12_edi_tools_config&#45;&gt;app_schemas</title><style>.edge>path:hover{stroke-width:8}</style>
<path fill="none" stroke="black" d="M636.86,-257.03C669.59,-270.88 682.35,-248.4 716.83,-257.03"/>
<path fill="none" stroke="black" d="M528.57,-187.74C567.71,-213.4 633.42,-256.42 634.86,-257.03"/>
</g>
<!-- x12_edi_tools_config&#45;&gt;app_services -->
<g id="edge17" class="edge">
<title>x12_edi_tools_config&#45;&gt;app_services</title><style>.edge>path:hover{stroke-width:8}</style>
<path fill="none" stroke="black" d="M636.86,-257.03C673.1,-272.36 680.44,-280.05 716.83,-295.03"/>
</g>
<!-- x12_edi_tools_config&#45;&gt;x12_edi_tools -->
<g id="edge18" class="edge">
<title>x12_edi_tools_config&#45;&gt;x12_edi_tools</title><style>.edge>path:hover{stroke-width:8}</style>
<path fill="none" stroke="black" d="M551.39,-161.03C561.55,-159.44 572.24,-157.78 582.44,-156.19"/>
<polygon fill="#3bcece" stroke="black" points="582.86,-159.67 592.2,-154.67 581.78,-152.75 582.86,-159.67"/>
</g>
<!-- x12_edi_tools_exceptions -->
<g id="node10" class="node">
<title>x12_edi_tools_exceptions</title><style>.edge>path:hover{stroke-width:8}</style>
<ellipse fill="#22e7e7" stroke="black" cx="203.58" cy="-138.03" rx="55.86" ry="21.57"/>
<text xml:space="preserve" text-anchor="middle" x="203.58" y="-139.78" font-family="Helvetica,sans-Serif" font-size="10.00" fill="#000000">x12_edi_tools.</text>
<text xml:space="preserve" text-anchor="middle" x="203.58" y="-128.53" font-family="Helvetica,sans-Serif" font-size="10.00" fill="#000000">exceptions</text>
</g>
<!-- x12_edi_tools_exceptions&#45;&gt;app_services -->
<g id="edge19" class="edge">
<title>x12_edi_tools_exceptions&#45;&gt;app_services</title><style>.edge>path:hover{stroke-width:8}</style>
<path fill="none" stroke="black" d="M352.31,-131.03C402.75,-136.2 398.46,-176.1 443.17,-200.03 465.92,-212.2 474.25,-209.02 498.03,-219.03"/>
<path fill="none" stroke="black" d="M500.03,-219.03C563.44,-245.7 566.11,-292.85 634.86,-295.03"/>
<path fill="none" stroke="black" d="M636.86,-295.03C672.38,-296.15 683.96,-281.5 716.83,-295.03"/>
</g>
<!-- x12_edi_tools_exceptions&#45;&gt;x12_edi_tools -->
<g id="edge20" class="edge">
<title>x12_edi_tools_exceptions&#45;&gt;x12_edi_tools</title><style>.edge>path:hover{stroke-width:8}</style>
<path fill="none" stroke="black" d="M352.31,-131.03C416.95,-137.66 433.21,-123.62 498.03,-119.03"/>
<path fill="none" stroke="black" d="M500.03,-119.03C531.06,-116.83 565.33,-124.33 591.55,-132.26"/>
<polygon fill="#22e7e7" stroke="black" points="590.23,-135.51 600.82,-135.19 592.35,-128.84 590.23,-135.51"/>
<path fill="none" stroke="black" d="M257.3,-131.69C285.03,-129.32 319.57,-127.87 350.31,-131.03"/>
</g>
<!-- x12_edi_tools_exceptions&#45;&gt;x12_edi_tools_parser -->
<g id="edge21" class="edge">
<title>x12_edi_tools_exceptions&#45;&gt;x12_edi_tools_parser</title><style>.edge>path:hover{stroke-width:8}</style>
<path fill="none" stroke="black" d="M243.64,-122.75C261.11,-115.92 281.93,-107.77 300.51,-100.51"/>
<polygon fill="#22e7e7" stroke="black" points="301.7,-103.8 309.74,-96.9 299.15,-97.28 301.7,-103.8"/>
</g>
<!-- x12_edi_tools_payers -->
<g id="node13" class="node">
<title>x12_edi_tools_payers</title><style>.edge>path:hover{stroke-width:8}</style>
<ellipse fill="#20b6b6" stroke="black" cx="351.31" cy="-219.03" rx="55.86" ry="21.57"/>
<text xml:space="preserve" text-anchor="middle" x="351.31" y="-220.78" font-family="Helvetica,sans-Serif" font-size="10.00" fill="#000000">x12_edi_tools.</text>
<text xml:space="preserve" text-anchor="middle" x="351.31" y="-209.53" font-family="Helvetica,sans-Serif" font-size="10.00" fill="#000000">payers</text>
</g>
<!-- x12_edi_tools_exceptions&#45;&gt;x12_edi_tools_payers -->
<g id="edge22" class="edge">
<title>x12_edi_tools_exceptions&#45;&gt;x12_edi_tools_payers</title><style>.edge>path:hover{stroke-width:8}</style>
<path fill="none" stroke="black" d="M236.56,-155.8C257.73,-167.57 285.7,-183.11 308.6,-195.85"/>
<polygon fill="#22e7e7" stroke="black" points="306.64,-198.76 317.08,-200.56 310.04,-192.64 306.64,-198.76"/>
</g>
<!-- x12_edi_tools_exceptions&#45;&gt;x12_edi_tools_validator -->
<g id="edge23" class="edge">
<title>x12_edi_tools_exceptions&#45;&gt;x12_edi_tools_validator</title><style>.edge>path:hover{stroke-width:8}</style>
<path fill="none" stroke="black" d="M233.1,-156.74C242.25,-163.64 251.94,-172 259.45,-181.03 281.56,-207.63 268,-228.98 295.45,-250.03 334.2,-279.75 388.73,-290.61 431.45,-294.26"/>
<polygon fill="#22e7e7" stroke="black" points="431.14,-297.74 441.37,-294.97 431.65,-290.76 431.14,-297.74"/>
</g>
<!-- x12_edi_tools_models&#45;&gt;app_services -->
<g id="edge24" class="edge">
<title>x12_edi_tools_models&#45;&gt;app_services</title><style>.edge>path:hover{stroke-width:8}</style>
<path fill="none" stroke="black" d="M352.31,-307.03C415.64,-328.69 431.51,-352.46 498.03,-345.03"/>
<path fill="none" stroke="black" d="M500.03,-345.03C525.67,-342.16 530.67,-334.91 554.89,-326.03 590.68,-312.9 596.76,-293.82 634.86,-295.03"/>
</g>
<!-- x12_edi_tools_models&#45;&gt;x12_edi_tools -->
<g id="edge25" class="edge">
<title>x12_edi_tools_models&#45;&gt;x12_edi_tools</title><style>.edge>path:hover{stroke-width:8}</style>
<path fill="none" stroke="black" d="M246.82,-198.07C324.91,-172.34 485.17,-119.94 498.03,-119.03"/>
</g>
<!-- x12_edi_tools_models&#45;&gt;x12_edi_tools_parser -->
<g id="edge26" class="edge">
<title>x12_edi_tools_models&#45;&gt;x12_edi_tools_parser</title><style>.edge>path:hover{stroke-width:8}</style>
<path fill="none" stroke="black" d="M230.43,-192.66C239.75,-185.45 250.23,-177.06 259.45,-169.03 281.55,-149.75 305.32,-126.64 323,-108.94"/>
<polygon fill="#0bdfdf" stroke="black" points="325.04,-111.86 329.6,-102.29 320.07,-106.92 325.04,-111.86"/>
</g>
<!-- x12_edi_tools_models&#45;&gt;x12_edi_tools_payers -->
<g id="edge27" class="edge">
<title>x12_edi_tools_models&#45;&gt;x12_edi_tools_payers</title><style>.edge>path:hover{stroke-width:8}</style>
<path fill="none" stroke="black" d="M259.26,-214.65C267.48,-215.05 276.03,-215.46 284.45,-215.86"/>
<polygon fill="#0bdfdf" stroke="black" points="284.14,-219.35 294.3,-216.34 284.48,-212.36 284.14,-219.35"/>
</g>
<!-- x12_edi_tools_models&#45;&gt;x12_edi_tools_validator -->
<g id="edge28" class="edge">
<title>x12_edi_tools_models&#45;&gt;x12_edi_tools_validator</title><style>.edge>path:hover{stroke-width:8}</style>
<path fill="none" stroke="black" d="M226.59,-231.79C244.32,-247.07 270.34,-268.05 295.45,-283.03 318.3,-296.66 325.13,-298.41 350.31,-307.03"/>
<path fill="none" stroke="black" d="M352.31,-307.03C381.02,-316.85 414.69,-314.88 442.42,-310"/>
<polygon fill="#0bdfdf" stroke="black" points="442.89,-313.47 452.04,-308.12 441.55,-306.6 442.89,-313.47"/>
</g>
<!-- x12_edi_tools_parser&#45;&gt;app_services -->
<g id="edge29" class="edge">
<title>x12_edi_tools_parser&#45;&gt;app_services</title><style>.edge>path:hover{stroke-width:8}</style>
<path fill="none" stroke="black" d="M406.82,-77.94C434.27,-77.17 468.02,-77.41 498.03,-81.03"/>
<path fill="none" stroke="black" d="M500.03,-81.03C663.24,-100.72 711.95,-121.46 841.99,-222.03 860.91,-236.66 880.48,-255.18 895.2,-269.91"/>
<polygon fill="#2bacac" stroke="black" points="892.69,-272.34 902.2,-277 897.67,-267.42 892.69,-272.34"/>
</g>
<!-- x12_edi_tools_parser&#45;&gt;x12_edi_tools -->
<g id="edge30" class="edge">
<title>x12_edi_tools_parser&#45;&gt;x12_edi_tools</title><style>.edge>path:hover{stroke-width:8}</style>
<path fill="none" stroke="black" d="M500.03,-81.03C538.92,-85.72 578.48,-107.88 604.6,-125.44"/>
<polygon fill="#2bacac" stroke="black" points="602.47,-128.22 612.68,-131.04 606.45,-122.47 602.47,-128.22"/>
</g>
<!-- x12_edi_tools_payers&#45;&gt;app_services -->
<g id="edge31" class="edge">
<title>x12_edi_tools_payers&#45;&gt;app_services</title><style>.edge>path:hover{stroke-width:8}</style>
<path fill="none" stroke="black" d="M402.1,-209.68C431.18,-206.47 467.95,-206.37 498.03,-219.03"/>
</g>
<!-- x12_edi_tools_payers&#45;&gt;x12_edi_tools -->
<g id="edge32" class="edge">
<title>x12_edi_tools_payers&#45;&gt;x12_edi_tools</title><style>.edge>path:hover{stroke-width:8}</style>
<path fill="none" stroke="black" d="M383.45,-201.02C391.55,-195.7 400.01,-189.55 407.17,-183.03 426.11,-165.79 422.24,-152.8 443.17,-138.03 464.25,-123.15 472.29,-120.85 498.03,-119.03"/>
</g>
<!-- x12_edi_tools_payers&#45;&gt;x12_edi_tools_validator -->
<g id="edge33" class="edge">
<title>x12_edi_tools_payers&#45;&gt;x12_edi_tools_validator</title><style>.edge>path:hover{stroke-width:8}</style>
<path fill="none" stroke="black" d="M395.86,-241.74C414.49,-251.46 436.19,-262.77 454.78,-272.47"/>
<polygon fill="#20b6b6" stroke="black" points="397.57,-238.68 387.08,-237.16 394.33,-244.89 397.57,-238.68"/>
<polygon fill="#20b6b6" stroke="black" points="452.93,-275.45 463.41,-276.97 456.16,-269.24 452.93,-275.45"/>
</g>
<!-- x12_edi_tools_validator&#45;&gt;app_services -->
<g id="edge34" class="edge">
<title>x12_edi_tools_validator&#45;&gt;app_services</title><style>.edge>path:hover{stroke-width:8}</style>
<path fill="none" stroke="black" d="M555.15,-294.24C579.57,-294.09 608.66,-294.2 634.86,-295.03"/>
</g>
<!-- x12_edi_tools_validator&#45;&gt;x12_edi_tools -->
<g id="edge35" class="edge">
<title>x12_edi_tools_validator&#45;&gt;x12_edi_tools</title><style>.edge>path:hover{stroke-width:8}</style>
<path fill="none" stroke="black" d="M518.78,-274.59C543.04,-248.13 585.31,-202.05 611.6,-173.39"/>
<polygon fill="#1eaeae" stroke="black" points="614,-175.95 618.18,-166.21 608.84,-171.22 614,-175.95"/>
</g>
</g>
</svg>
