<?xml version="1.0" encoding="UTF-8" standalone="no"?>
<!DOCTYPE svg PUBLIC "-//W3C//DTD SVG 1.1//EN"
 "http://www.w3.org/Graphics/SVG/1.1/DTD/svg11.dtd">
<!-- Generated by graphviz version 14.1.5 (20260411.2331)
 -->
<!-- Title: G Pages: 1 -->
<svg width="1440pt" height="342pt"
 viewBox="0.00 0.00 1440.00 342.00" xmlns="http://www.w3.org/2000/svg" xmlns:xlink="http://www.w3.org/1999/xlink">
<g id="graph0" class="graph" transform="scale(1 1) rotate(0) translate(4 338.43)">
<title>G</title><style>.edge>path:hover{stroke-width:8}</style>
<polygon fill="white" stroke="none" points="-4,4 -4,-338.43 1435.66,-338.43 1435.66,4 -4,4"/>
<!-- app_core -->
<g id="node1" class="node">
<title>app_core</title><style>.edge>path:hover{stroke-width:8}</style>
<ellipse fill="#c82323" stroke="black" cx="909.65" cy="-150.01" rx="31.66" ry="18"/>
<text xml:space="preserve" text-anchor="middle" x="909.65" y="-146.14" font-family="Helvetica,sans-Serif" font-size="10.00" fill="#ffffff">app.core</text>
</g>
<!-- app_main -->
<g id="node3" class="node">
<title>app_main</title><style>.edge>path:hover{stroke-width:8}</style>
<ellipse fill="#a44646" stroke="black" cx="1243.53" cy="-169.01" rx="32.99" ry="18"/>
<text xml:space="preserve" text-anchor="middle" x="1243.53" y="-165.14" font-family="Helvetica,sans-Serif" font-size="10.00" fill="#ffffff">app.main</text>
</g>
<!-- app_core&#45;&gt;app_main -->
<g id="edge1" class="edge">
<title>app_core&#45;&gt;app_main</title><style>.edge>path:hover{stroke-width:8}</style>
<path fill="none" stroke="black" d="M1020.61,-146.01C1082.99,-150.96 1155.02,-158.83 1199.68,-163.95"/>
<polygon fill="#c82323" stroke="black" points="1199.13,-167.41 1209.46,-165.08 1199.93,-160.46 1199.13,-167.41"/>
<path fill="none" stroke="black" d="M940.97,-146.65C962.65,-144.79 992.49,-143.34 1018.61,-146.01"/>
</g>
<!-- app_routers -->
<g id="node4" class="node">
<title>app_routers</title><style>.edge>path:hover{stroke-width:8}</style>
<ellipse fill="#a13535" stroke="black" cx="1136.23" cy="-192.01" rx="38.31" ry="18"/>
<text xml:space="preserve" text-anchor="middle" x="1136.23" y="-188.14" font-family="Helvetica,sans-Serif" font-size="10.00" fill="#ffffff">app.routers</text>
</g>
<!-- app_core&#45;&gt;app_routers -->
<g id="edge2" class="edge">
<title>app_core&#45;&gt;app_routers</title><style>.edge>path:hover{stroke-width:8}</style>
<path fill="none" stroke="black" d="M1020.61,-146.01C1049.58,-148.31 1080,-161.07 1102.22,-172.57"/>
<polygon fill="#c82323" stroke="black" points="1100.32,-175.52 1110.79,-177.17 1103.63,-169.36 1100.32,-175.52"/>
</g>
<!-- app_services -->
<g id="node6" class="node">
<title>app_services</title><style>.edge>path:hover{stroke-width:8}</style>
<ellipse fill="#732626" stroke="black" cx="1019.61" cy="-192.01" rx="42.31" ry="18"/>
<text xml:space="preserve" text-anchor="middle" x="1019.61" y="-188.14" font-family="Helvetica,sans-Serif" font-size="10.00" fill="#ffffff">app.services</text>
</g>
<!-- app_core&#45;&gt;app_services -->
<g id="edge3" class="edge">
<title>app_core&#45;&gt;app_services</title><style>.edge>path:hover{stroke-width:8}</style>
<path fill="none" stroke="black" d="M936.51,-160.07C948.62,-164.78 963.34,-170.51 976.97,-175.81"/>
<polygon fill="#c82323" stroke="black" points="975.58,-179.03 986.17,-179.39 978.12,-172.51 975.58,-179.03"/>
</g>
<!-- app_lambda_handler -->
<g id="node2" class="node">
<title>app_lambda_handler</title><style>.edge>path:hover{stroke-width:8}</style>
<ellipse fill="#9f5656" stroke="black" cx="1372.09" cy="-169.01" rx="59.57" ry="21.57"/>
<text xml:space="preserve" text-anchor="middle" x="1372.09" y="-170.76" font-family="Helvetica,sans-Serif" font-size="10.00" fill="#ffffff">app.</text>
<text xml:space="preserve" text-anchor="middle" x="1372.09" y="-159.51" font-family="Helvetica,sans-Serif" font-size="10.00" fill="#ffffff">lambda_handler</text>
</g>
<!-- app_main&#45;&gt;app_lambda_handler -->
<g id="edge4" class="edge">
<title>app_main&#45;&gt;app_lambda_handler</title><style>.edge>path:hover{stroke-width:8}</style>
<path fill="none" stroke="black" d="M1276.79,-169.01C1284.24,-169.01 1292.46,-169.01 1300.84,-169.01"/>
<polygon fill="#a44646" stroke="black" points="1300.8,-172.51 1310.8,-169.01 1300.8,-165.51 1300.8,-172.51"/>
</g>
<!-- app_routers&#45;&gt;app_main -->
<g id="edge5" class="edge">
<title>app_routers&#45;&gt;app_main</title><style>.edge>path:hover{stroke-width:8}</style>
<path fill="none" stroke="black" d="M1171.42,-184.54C1180.91,-182.47 1191.33,-180.2 1201.18,-178.04"/>
<polygon fill="#a13535" stroke="black" points="1201.91,-181.47 1210.93,-175.91 1200.42,-174.63 1201.91,-181.47"/>
</g>
<!-- app_schemas -->
<g id="node5" class="node">
<title>app_schemas</title><style>.edge>path:hover{stroke-width:8}</style>
<ellipse fill="#bf2121" stroke="black" cx="797.91" cy="-150.01" rx="44.08" ry="18"/>
<text xml:space="preserve" text-anchor="middle" x="797.91" y="-146.14" font-family="Helvetica,sans-Serif" font-size="10.00" fill="#ffffff">app.schemas</text>
</g>
<!-- app_schemas&#45;&gt;app_core -->
<g id="edge6" class="edge">
<title>app_schemas&#45;&gt;app_core</title><style>.edge>path:hover{stroke-width:8}</style>
<path fill="none" stroke="black" d="M842.28,-150.01C850.25,-150.01 858.56,-150.01 866.49,-150.01"/>
<polygon fill="#bf2121" stroke="black" points="866.25,-153.51 876.25,-150.01 866.25,-146.51 866.25,-153.51"/>
</g>
<!-- app_schemas&#45;&gt;app_routers -->
<g id="edge7" class="edge">
<title>app_schemas&#45;&gt;app_routers</title><style>.edge>path:hover{stroke-width:8}</style>
<path fill="none" stroke="black" d="M829.48,-136.95C843.9,-131.47 861.53,-125.74 877.99,-123.01 958.73,-109.61 985.92,-101.64 1061.92,-132.01 1081.08,-139.67 1099.08,-154.24 1112.44,-167.11"/>
<polygon fill="#bf2121" stroke="black" points="1109.92,-169.53 1119.46,-174.15 1114.88,-164.6 1109.92,-169.53"/>
</g>
<!-- app_schemas&#45;&gt;app_services -->
<g id="edge8" class="edge">
<title>app_schemas&#45;&gt;app_services</title><style>.edge>path:hover{stroke-width:8}</style>
<path fill="none" stroke="black" d="M824.52,-164.56C846.15,-175.9 878.35,-190.59 908.65,-196.01"/>
</g>
<!-- app_services&#45;&gt;app_routers -->
<g id="edge9" class="edge">
<title>app_services&#45;&gt;app_routers</title><style>.edge>path:hover{stroke-width:8}</style>
<path fill="none" stroke="black" d="M1062.31,-192.01C1070.06,-192.01 1078.21,-192.01 1086.14,-192.01"/>
<polygon fill="#732626" stroke="black" points="1086.03,-195.51 1096.03,-192.01 1086.03,-188.51 1086.03,-195.51"/>
</g>
<!-- x12_edi_tools -->
<g id="node7" class="node">
<title>x12_edi_tools</title><style>.edge>path:hover{stroke-width:8}</style>
<ellipse fill="#04b3b3" stroke="black" cx="635.86" cy="-158.01" rx="44.97" ry="18"/>
<text xml:space="preserve" text-anchor="middle" x="635.86" y="-154.14" font-family="Helvetica,sans-Serif" font-size="10.00" fill="#ffffff">x12_edi_tools</text>
</g>
<!-- x12_edi_tools&#45;&gt;app_schemas -->
<g id="edge10" class="edge">
<title>x12_edi_tools&#45;&gt;app_schemas</title><style>.edge>path:hover{stroke-width:8}</style>
<path fill="none" stroke="black" d="M680.92,-156.56C692.61,-156.57 705.22,-156.94 716.83,-158.01"/>
<path fill="none" stroke="black" d="M717.83,-158.01C726.91,-158.85 736.58,-158.72 745.92,-158.07"/>
<polygon fill="#04b3b3" stroke="black" points="745.95,-161.58 755.59,-157.18 745.31,-154.61 745.95,-161.58"/>
</g>
<!-- x12_edi_tools&#45;&gt;app_services -->
<g id="edge11" class="edge">
<title>x12_edi_tools&#45;&gt;app_services</title><style>.edge>path:hover{stroke-width:8}</style>
<path fill="none" stroke="black" d="M717.83,-158.01C735.84,-159.67 737.54,-169.14 753.83,-177.01 772.67,-186.12 776.12,-193.59 796.91,-196.01"/>
<path fill="none" stroke="black" d="M798.91,-196.01C847.36,-201.65 860.64,-187.42 908.65,-196.01"/>
</g>
<!-- x12_edi_tools_common -->
<g id="node8" class="node">
<title>x12_edi_tools_common</title><style>.edge>path:hover{stroke-width:8}</style>
<ellipse fill="#0ce9e9" stroke="black" cx="55.86" cy="-184.01" rx="55.86" ry="21.57"/>
<text xml:space="preserve" text-anchor="middle" x="55.86" y="-185.76" font-family="Helvetica,sans-Serif" font-size="10.00" fill="#000000">x12_edi_tools.</text>
<text xml:space="preserve" text-anchor="middle" x="55.86" y="-174.51" font-family="Helvetica,sans-Serif" font-size="10.00" fill="#000000">common</text>
</g>
<!-- x12_edi_tools_common&#45;&gt;app_services -->
<g id="edge12" class="edge">
<title>x12_edi_tools_common&#45;&gt;app_services</title><style>.edge>path:hover{stroke-width:8}</style>
<path fill="none" stroke="black" d="M352.31,-330.01C416.99,-333.31 433.66,-337.2 498.03,-330.01"/>
</g>
<!-- x12_edi_tools_common&#45;&gt;x12_edi_tools -->
<g id="edge13" class="edge">
<title>x12_edi_tools_common&#45;&gt;x12_edi_tools</title><style>.edge>path:hover{stroke-width:8}</style>
<path fill="none" stroke="black" d="M352.31,-54.01C377.52,-59.49 387.25,-56.61 407.17,-73.01 431.76,-93.27 418.57,-114.75 443.17,-135.01 463.08,-151.42 472.63,-149.48 498.03,-154.01"/>
<path fill="none" stroke="black" d="M204.58,-54.01C266.88,-36.3 287.01,-40.28 350.31,-54.01"/>
<path fill="none" stroke="black" d="M500.03,-154.01C525.9,-158.63 555,-159.97 579.53,-160.01"/>
<polygon fill="#0ce9e9" stroke="black" points="579.31,-163.52 589.29,-159.96 579.27,-156.52 579.31,-163.52"/>
<path fill="none" stroke="black" d="M69.25,-162.61C84.66,-137.75 113.2,-97.09 147.72,-73.01 168.89,-58.25 177.76,-61.07 202.58,-54.01"/>
</g>
<!-- x12_edi_tools_models -->
<g id="node11" class="node">
<title>x12_edi_tools_models</title><style>.edge>path:hover{stroke-width:8}</style>
<ellipse fill="#0bdfdf" stroke="black" cx="203.58" cy="-184.01" rx="55.86" ry="21.57"/>
<text xml:space="preserve" text-anchor="middle" x="203.58" y="-185.76" font-family="Helvetica,sans-Serif" font-size="10.00" fill="#000000">x12_edi_tools.</text>
<text xml:space="preserve" text-anchor="middle" x="203.58" y="-174.51" font-family="Helvetica,sans-Serif" font-size="10.00" fill="#000000">models</text>
</g>
<!-- x12_edi_tools_common&#45;&gt;x12_edi_tools_models -->
<g id="edge14" class="edge">
<title>x12_edi_tools_common&#45;&gt;x12_edi_tools_models</title><style>.edge>path:hover{stroke-width:8}</style>
<path fill="none" stroke="black" d="M111.95,-184.01C119.84,-184.01 128.03,-184.01 136.11,-184.01"/>
<polygon fill="#0ce9e9" stroke="black" points="135.9,-187.51 145.9,-184.01 135.9,-180.51 135.9,-187.51"/>
</g>
<!-- x12_edi_tools_parser -->
<g id="node12" class="node">
<title>x12_edi_tools_parser</title><style>.edge>path:hover{stroke-width:8}</style>
<ellipse fill="#2bacac" stroke="black" cx="351.31" cy="-104.01" rx="55.86" ry="21.57"/>
<text xml:space="preserve" text-anchor="middle" x="351.31" y="-105.76" font-family="Helvetica,sans-Serif" font-size="10.00" fill="#000000">x12_edi_tools.</text>
<text xml:space="preserve" text-anchor="middle" x="351.31" y="-94.51" font-family="Helvetica,sans-Serif" font-size="10.00" fill="#000000">parser</text>
</g>
<!-- x12_edi_tools_common&#45;&gt;x12_edi_tools_parser -->
<g id="edge15" class="edge">
<title>x12_edi_tools_common&#45;&gt;x12_edi_tools_parser</title><style>.edge>path:hover{stroke-width:8}</style>
<path fill="none" stroke="black" d="M204.58,-54.01C242.44,-43.25 284.93,-61.38 314.21,-78.74"/>
<polygon fill="#0ce9e9" stroke="black" points="312.36,-81.71 322.7,-84.01 316.04,-75.76 312.36,-81.71"/>
</g>
<!-- x12_edi_tools_validator -->
<g id="node14" class="node">
<title>x12_edi_tools_validator</title><style>.edge>path:hover{stroke-width:8}</style>
<ellipse fill="#1eaeae" stroke="black" cx="499.03" cy="-280.01" rx="55.86" ry="21.57"/>
<text xml:space="preserve" text-anchor="middle" x="499.03" y="-281.76" font-family="Helvetica,sans-Serif" font-size="10.00" fill="#000000">x12_edi_tools.</text>
<text xml:space="preserve" text-anchor="middle" x="499.03" y="-270.51" font-family="Helvetica,sans-Serif" font-size="10.00" fill="#000000">validator</text>
</g>
<!-- x12_edi_tools_common&#45;&gt;x12_edi_tools_validator -->
<g id="edge16" class="edge">
<title>x12_edi_tools_common&#45;&gt;x12_edi_tools_validator</title><style>.edge>path:hover{stroke-width:8}</style>
<path fill="none" stroke="black" d="M352.31,-330.01C387.52,-327.05 425.2,-313.83 453.42,-301.73"/>
<polygon fill="#0ce9e9" stroke="black" points="454.63,-305.02 462.37,-297.78 451.81,-298.62 454.63,-305.02"/>
<path fill="none" stroke="black" d="M77.59,-204.23C123.32,-246.48 237.75,-339.47 350.31,-330.01"/>
</g>
<!-- x12_edi_tools_config -->
<g id="node9" class="node">
<title>x12_edi_tools_config</title><style>.edge>path:hover{stroke-width:8}</style>
<ellipse fill="#3bcece" stroke="black" cx="499.03" cy="-104.01" rx="55.86" ry="21.57"/>
<text xml:space="preserve" text-anchor="middle" x="499.03" y="-105.76" font-family="Helvetica,sans-Serif" font-size="10.00" fill="#000000">x12_edi_tools.</text>
<text xml:space="preserve" text-anchor="middle" x="499.03" y="-94.51" font-family="Helvetica,sans-Serif" font-size="10.00" fill="#000000">config</text>
</g>
<!-- x12_edi_tools_config&#45;&gt;app_schemas -->
<g id="edge17" class="edge">
<title>x12_edi_tools_config&#45;&gt;app_schemas</title><style>.edge>path:hover{stroke-width:8}</style>
<path fill="none" stroke="black" d="M717.83,-104.01C727.98,-105.43 748.01,-117.12 765.36,-128.35"/>
<polygon fill="#3bcece" stroke="black" points="763.11,-131.06 773.39,-133.65 766.97,-125.22 763.11,-131.06"/>
</g>
<!-- x12_edi_tools_config&#45;&gt;app_services -->
<g id="edge18" class="edge">
<title>x12_edi_tools_config&#45;&gt;app_services</title><style>.edge>path:hover{stroke-width:8}</style>
<path fill="none" stroke="black" d="M717.83,-104.01C752.64,-108.88 765.98,-87.32 796.91,-104.01"/>
<path fill="none" stroke="black" d="M554.22,-99.87C598.25,-97.49 661.85,-96.32 716.83,-104.01"/>
</g>
<!-- x12_edi_tools_config&#45;&gt;x12_edi_tools -->
<g id="edge19" class="edge">
<title>x12_edi_tools_config&#45;&gt;x12_edi_tools</title><style>.edge>path:hover{stroke-width:8}</style>
<path fill="none" stroke="black" d="M538.67,-119.49C555.55,-126.25 575.4,-134.2 592.67,-141.11"/>
<polygon fill="#3bcece" stroke="black" points="591.05,-144.24 601.63,-144.7 593.65,-137.74 591.05,-144.24"/>
</g>
<!-- x12_edi_tools_exceptions -->
<g id="node10" class="node">
<title>x12_edi_tools_exceptions</title><style>.edge>path:hover{stroke-width:8}</style>
<ellipse fill="#22e7e7" stroke="black" cx="203.58" cy="-104.01" rx="55.86" ry="21.57"/>
<text xml:space="preserve" text-anchor="middle" x="203.58" y="-105.76" font-family="Helvetica,sans-Serif" font-size="10.00" fill="#000000">x12_edi_tools.</text>
<text xml:space="preserve" text-anchor="middle" x="203.58" y="-94.51" font-family="Helvetica,sans-Serif" font-size="10.00" fill="#000000">exceptions</text>
</g>
<!-- x12_edi_tools_exceptions&#45;&gt;app_services -->
<g id="edge20" class="edge">
<title>x12_edi_tools_exceptions&#45;&gt;app_services</title><style>.edge>path:hover{stroke-width:8}</style>
<path fill="none" stroke="black" d="M798.91,-104.01C817.33,-113.95 825.97,-109.55 841.99,-123.01 875.62,-151.29 865.4,-188.27 908.65,-196.01"/>
<path fill="none" stroke="black" d="M910.65,-196.01C928.97,-199.29 949.32,-199.43 967.36,-198.36"/>
<polygon fill="#22e7e7" stroke="black" points="967.62,-201.85 977.33,-197.62 967.1,-194.87 967.62,-201.85"/>
<path fill="none" stroke="black" d="M233.64,-85.57C242.06,-80.06 251.2,-73.91 259.45,-68.01 275.93,-56.22 276.27,-46.59 295.45,-40.01 507.97,32.9 599.18,2.68 796.91,-104.01"/>
</g>
<!-- x12_edi_tools_exceptions&#45;&gt;x12_edi_tools -->
<g id="edge21" class="edge">
<title>x12_edi_tools_exceptions&#45;&gt;x12_edi_tools</title><style>.edge>path:hover{stroke-width:8}</style>
<path fill="none" stroke="black" d="M231.97,-85.02C260.86,-67.29 307.96,-44.82 350.31,-54.01"/>
</g>
<!-- x12_edi_tools_exceptions&#45;&gt;x12_edi_tools_parser -->
<g id="edge22" class="edge">
<title>x12_edi_tools_exceptions&#45;&gt;x12_edi_tools_parser</title><style>.edge>path:hover{stroke-width:8}</style>
<path fill="none" stroke="black" d="M259.68,-104.01C267.56,-104.01 275.75,-104.01 283.83,-104.01"/>
<polygon fill="#22e7e7" stroke="black" points="283.62,-107.51 293.62,-104.01 283.62,-100.51 283.62,-107.51"/>
</g>
<!-- x12_edi_tools_payers -->
<g id="node13" class="node">
<title>x12_edi_tools_payers</title><style>.edge>path:hover{stroke-width:8}</style>
<ellipse fill="#20b6b6" stroke="black" cx="351.31" cy="-204.01" rx="55.86" ry="21.57"/>
<text xml:space="preserve" text-anchor="middle" x="351.31" y="-205.76" font-family="Helvetica,sans-Serif" font-size="10.00" fill="#000000">x12_edi_tools.</text>
<text xml:space="preserve" text-anchor="middle" x="351.31" y="-194.51" font-family="Helvetica,sans-Serif" font-size="10.00" fill="#000000">payers</text>
</g>
<!-- x12_edi_tools_exceptions&#45;&gt;x12_edi_tools_payers -->
<g id="edge23" class="edge">
<title>x12_edi_tools_exceptions&#45;&gt;x12_edi_tools_payers</title><style>.edge>path:hover{stroke-width:8}</style>
<path fill="none" stroke="black" d="M231.99,-122.82C255.1,-138.67 288.35,-161.49 313.72,-178.9"/>
<polygon fill="#22e7e7" stroke="black" points="311.55,-181.66 321.77,-184.43 315.51,-175.89 311.55,-181.66"/>
</g>
<!-- x12_edi_tools_exceptions&#45;&gt;x12_edi_tools_validator -->
<g id="edge24" class="edge">
<title>x12_edi_tools_exceptions&#45;&gt;x12_edi_tools_validator</title><style>.edge>path:hover{stroke-width:8}</style>
<path fill="none" stroke="black" d="M230.55,-123.25C240.52,-131.58 251.42,-141.95 259.45,-153.01 282.82,-185.23 264.69,-209.74 295.45,-235.01 333.39,-266.19 388.37,-276.93 431.48,-280.15"/>
<polygon fill="#22e7e7" stroke="black" points="431.02,-283.63 441.22,-280.75 431.45,-276.64 431.02,-283.63"/>
</g>
<!-- x12_edi_tools_models&#45;&gt;app_services -->
<g id="edge25" class="edge">
<title>x12_edi_tools_models&#45;&gt;app_services</title><style>.edge>path:hover{stroke-width:8}</style>
<path fill="none" stroke="black" d="M352.31,-292.01C414.96,-315.56 431.51,-337.44 498.03,-330.01"/>
<path fill="none" stroke="black" d="M500.03,-330.01C525.67,-327.15 530.67,-319.9 554.89,-311.01 590.68,-297.88 597.7,-288.49 634.86,-280.01"/>
</g>
<!-- x12_edi_tools_models&#45;&gt;x12_edi_tools -->
<g id="edge26" class="edge">
<title>x12_edi_tools_models&#45;&gt;x12_edi_tools</title><style>.edge>path:hover{stroke-width:8}</style>
<path fill="none" stroke="black" d="M249.87,-171.59C307.78,-157.5 410.96,-138.37 498.03,-154.01"/>
</g>
<!-- x12_edi_tools_models&#45;&gt;x12_edi_tools_parser -->
<g id="edge27" class="edge">
<title>x12_edi_tools_models&#45;&gt;x12_edi_tools_parser</title><style>.edge>path:hover{stroke-width:8}</style>
<path fill="none" stroke="black" d="M236.92,-166.26C257.87,-154.76 285.36,-139.67 308.02,-127.23"/>
<polygon fill="#0bdfdf" stroke="black" points="309.65,-130.33 316.73,-122.45 306.28,-124.19 309.65,-130.33"/>
</g>
<!-- x12_edi_tools_models&#45;&gt;x12_edi_tools_payers -->
<g id="edge28" class="edge">
<title>x12_edi_tools_models&#45;&gt;x12_edi_tools_payers</title><style>.edge>path:hover{stroke-width:8}</style>
<path fill="none" stroke="black" d="M256.78,-191.18C266.63,-192.53 277.03,-193.96 287.17,-195.35"/>
<polygon fill="#0bdfdf" stroke="black" points="286.59,-198.8 296.97,-196.69 287.54,-191.87 286.59,-198.8"/>
</g>
<!-- x12_edi_tools_models&#45;&gt;x12_edi_tools_validator -->
<g id="edge29" class="edge">
<title>x12_edi_tools_models&#45;&gt;x12_edi_tools_validator</title><style>.edge>path:hover{stroke-width:8}</style>
<path fill="none" stroke="black" d="M352.31,-292.01C381.02,-302.81 415.1,-300.73 443.08,-295.54"/>
<polygon fill="#0bdfdf" stroke="black" points="443.69,-298.99 452.78,-293.54 442.28,-292.13 443.69,-298.99"/>
<path fill="none" stroke="black" d="M222.84,-204.41C240.15,-222.84 267.58,-249.78 295.45,-268.01 317.72,-282.58 325.39,-282.65 350.31,-292.01"/>
</g>
<!-- x12_edi_tools_parser&#45;&gt;app_services -->
<g id="edge30" class="edge">
<title>x12_edi_tools_parser&#45;&gt;app_services</title><style>.edge>path:hover{stroke-width:8}</style>
<path fill="none" stroke="black" d="M636.86,-280.01C713.1,-254.69 717.11,-186.73 796.91,-196.01"/>
<path fill="none" stroke="black" d="M376.84,-123.41C394.63,-136.93 419.59,-154.83 443.17,-168.01 490.34,-194.38 508.55,-188.21 554.89,-216.01 593.93,-239.43 590.48,-290.13 634.86,-280.01"/>
</g>
<!-- x12_edi_tools_parser&#45;&gt;x12_edi_tools -->
<g id="edge31" class="edge">
<title>x12_edi_tools_parser&#45;&gt;x12_edi_tools</title><style>.edge>path:hover{stroke-width:8}</style>
<path fill="none" stroke="black" d="M389.21,-120.19C418.18,-132.02 459.86,-147.15 498.03,-154.01"/>
</g>
<!-- x12_edi_tools_payers&#45;&gt;app_services -->
<g id="edge32" class="edge">
<title>x12_edi_tools_payers&#45;&gt;app_services</title><style>.edge>path:hover{stroke-width:8}</style>
<path fill="none" stroke="black" d="M500.03,-230.01C525.81,-231.22 530.67,-240.13 554.89,-249.01 590.68,-262.14 598.68,-292.03 634.86,-280.01"/>
</g>
<!-- x12_edi_tools_payers&#45;&gt;x12_edi_tools -->
<g id="edge33" class="edge">
<title>x12_edi_tools_payers&#45;&gt;x12_edi_tools</title><style>.edge>path:hover{stroke-width:8}</style>
<path fill="none" stroke="black" d="M500.03,-230.01C542.24,-232 584.1,-203.66 609.72,-181.95"/>
<polygon fill="#20b6b6" stroke="black" points="611.74,-184.84 616.94,-175.61 607.12,-179.58 611.74,-184.84"/>
<path fill="none" stroke="black" d="M399.21,-215.57C427.6,-221.76 464.66,-228.44 498.03,-230.01"/>
</g>
<!-- x12_edi_tools_payers&#45;&gt;x12_edi_tools_validator -->
<g id="edge34" class="edge">
<title>x12_edi_tools_payers&#45;&gt;x12_edi_tools_validator</title><style>.edge>path:hover{stroke-width:8}</style>
<path fill="none" stroke="black" d="M395.86,-226.73C414.49,-236.44 436.19,-247.76 454.78,-257.46"/>
<polygon fill="#20b6b6" stroke="black" points="397.57,-223.67 387.08,-222.15 394.33,-229.88 397.57,-223.67"/>
<polygon fill="#20b6b6" stroke="black" points="452.93,-260.44 463.41,-261.96 456.16,-254.23 452.93,-260.44"/>
</g>
<!-- x12_edi_tools_validator&#45;&gt;app_services -->
<g id="edge35" class="edge">
<title>x12_edi_tools_validator&#45;&gt;app_services</title><style>.edge>path:hover{stroke-width:8}</style>
<path fill="none" stroke="black" d="M551.83,-287.56C577.43,-289.41 608.42,-288.79 634.86,-280.01"/>
</g>
<!-- x12_edi_tools_validator&#45;&gt;x12_edi_tools -->
<g id="edge36" class="edge">
<title>x12_edi_tools_validator&#45;&gt;x12_edi_tools</title><style>.edge>path:hover{stroke-width:8}</style>
<path fill="none" stroke="black" d="M530.57,-261.83C538.76,-256.47 547.41,-250.33 554.89,-244.01 576.51,-225.75 598.2,-202.01 613.52,-184.1"/>
<polygon fill="#1eaeae" stroke="black" points="616.17,-186.39 619.94,-176.48 610.82,-181.87 616.17,-186.39"/>
</g>
</g>
</svg>
