<?xml version="1.0" encoding="UTF-8" standalone="no"?>
<!DOCTYPE svg PUBLIC "-//W3C//DTD SVG 1.1//EN"
 "http://www.w3.org/Graphics/SVG/1.1/DTD/svg11.dtd">
<!-- Generated by graphviz version 2.43.0 (0)
 -->
<!-- Title: G Pages: 1 -->
<svg width="1545pt" height="344pt"
 viewBox="0.00 0.00 1544.81 343.77" xmlns="http://www.w3.org/2000/svg" xmlns:xlink="http://www.w3.org/1999/xlink">
<g id="graph0" class="graph" transform="scale(1 1) rotate(0) translate(4 339.77)">
<title>G</title><style>.edge>path:hover{stroke-width:8}</style>
<polygon fill="white" stroke="transparent" points="-4,4 -4,-339.77 1540.81,-339.77 1540.81,4 -4,4"/>
<!-- app_core -->
<g id="node1" class="node">
<title>app_core</title><style>.edge>path:hover{stroke-width:8}</style>
<ellipse fill="#c82323" stroke="black" cx="974.14" cy="-154.37" rx="34.96" ry="18"/>
<text text-anchor="middle" x="974.14" y="-151.87" font-family="Helvetica,sans-Serif" font-size="10.00" fill="#ffffff">app.core</text>
</g>
<!-- app_main -->
<g id="node3" class="node">
<title>app_main</title><style>.edge>path:hover{stroke-width:8}</style>
<ellipse fill="#a44646" stroke="black" cx="1329.96" cy="-173.37" rx="36.49" ry="18"/>
<text text-anchor="middle" x="1329.96" y="-170.87" font-family="Helvetica,sans-Serif" font-size="10.00" fill="#ffffff">app.main</text>
</g>
<!-- app_core&#45;&gt;app_main -->
<g id="edge1" class="edge">
<title>app_core&#45;&gt;app_main</title><style>.edge>path:hover{stroke-width:8}</style>
<path fill="none" stroke="black" d="M1008.79,-151.27C1031.65,-149.63 1062.57,-148.35 1089.78,-150.37"/>
<path fill="none" stroke="black" d="M1091.78,-150.37C1158.85,-155.37 1236.39,-163.29 1284.05,-168.41"/>
<polygon fill="#c82323" stroke="black" points="1283.72,-171.9 1294.04,-169.49 1284.48,-164.94 1283.72,-171.9"/>
</g>
<!-- app_routers -->
<g id="node4" class="node">
<title>app_routers</title><style>.edge>path:hover{stroke-width:8}</style>
<ellipse fill="#a13535" stroke="black" cx="1215.08" cy="-196.37" rx="42.27" ry="18"/>
<text text-anchor="middle" x="1215.08" y="-193.87" font-family="Helvetica,sans-Serif" font-size="10.00" fill="#ffffff">app.routers</text>
</g>
<!-- app_core&#45;&gt;app_routers -->
<g id="edge2" class="edge">
<title>app_core&#45;&gt;app_routers</title><style>.edge>path:hover{stroke-width:8}</style>
<path fill="none" stroke="black" d="M1091.78,-150.37C1122.94,-152.69 1155.97,-165.83 1179.84,-177.47"/>
<polygon fill="#c82323" stroke="black" points="1178.33,-180.63 1188.83,-182 1181.47,-174.38 1178.33,-180.63"/>
</g>
<!-- app_services -->
<g id="node6" class="node">
<title>app_services</title><style>.edge>path:hover{stroke-width:8}</style>
<ellipse fill="#732626" stroke="black" cx="1090.78" cy="-196.37" rx="45.83" ry="18"/>
<text text-anchor="middle" x="1090.78" y="-193.87" font-family="Helvetica,sans-Serif" font-size="10.00" fill="#ffffff">app.services</text>
</g>
<!-- app_core&#45;&gt;app_services -->
<g id="edge3" class="edge">
<title>app_core&#45;&gt;app_services</title><style>.edge>path:hover{stroke-width:8}</style>
<path fill="none" stroke="black" d="M1002.89,-164.54C1016.15,-169.4 1032.33,-175.32 1047.11,-180.74"/>
<polygon fill="#c82323" stroke="black" points="1045.98,-184.05 1056.57,-184.21 1048.39,-177.48 1045.98,-184.05"/>
</g>
<!-- app_lambda_handler -->
<g id="node2" class="node">
<title>app_lambda_handler</title><style>.edge>path:hover{stroke-width:8}</style>
<ellipse fill="#9f5656" stroke="black" cx="1469.64" cy="-173.37" rx="67.35" ry="21.43"/>
<text text-anchor="middle" x="1469.64" y="-176.37" font-family="Helvetica,sans-Serif" font-size="10.00" fill="#ffffff">app.</text>
<text text-anchor="middle" x="1469.64" y="-165.37" font-family="Helvetica,sans-Serif" font-size="10.00" fill="#ffffff">lambda_handler</text>
</g>
<!-- app_main&#45;&gt;app_lambda_handler -->
<g id="edge4" class="edge">
<title>app_main&#45;&gt;app_lambda_handler</title><style>.edge>path:hover{stroke-width:8}</style>
<path fill="none" stroke="black" d="M1366.78,-173.37C1374.71,-173.37 1383.4,-173.37 1392.27,-173.37"/>
<polygon fill="#a44646" stroke="black" points="1392.32,-176.87 1402.32,-173.37 1392.32,-169.87 1392.32,-176.87"/>
</g>
<!-- app_routers&#45;&gt;app_main -->
<g id="edge5" class="edge">
<title>app_routers&#45;&gt;app_main</title><style>.edge>path:hover{stroke-width:8}</style>
<path fill="none" stroke="black" d="M1253.67,-188.71C1264.07,-186.59 1275.44,-184.28 1286.11,-182.1"/>
<polygon fill="#a13535" stroke="black" points="1286.98,-185.5 1296.08,-180.07 1285.59,-178.64 1286.98,-185.5"/>
</g>
<!-- app_schemas -->
<g id="node5" class="node">
<title>app_schemas</title><style>.edge>path:hover{stroke-width:8}</style>
<ellipse fill="#bf2121" stroke="black" cx="855.72" cy="-154.37" rx="47.86" ry="18"/>
<text text-anchor="middle" x="855.72" y="-151.87" font-family="Helvetica,sans-Serif" font-size="10.00" fill="#ffffff">app.schemas</text>
</g>
<!-- app_schemas&#45;&gt;app_core -->
<g id="edge6" class="edge">
<title>app_schemas&#45;&gt;app_core</title><style>.edge>path:hover{stroke-width:8}</style>
<path fill="none" stroke="black" d="M903.74,-154.37C912.08,-154.37 920.74,-154.37 929,-154.37"/>
<polygon fill="#bf2121" stroke="black" points="929.19,-157.87 939.19,-154.37 929.19,-150.87 929.19,-157.87"/>
</g>
<!-- app_schemas&#45;&gt;app_routers -->
<g id="edge7" class="edge">
<title>app_schemas&#45;&gt;app_routers</title><style>.edge>path:hover{stroke-width:8}</style>
<path fill="none" stroke="black" d="M888.73,-141.31C903.83,-135.83 922.26,-130.1 939.41,-127.37 1026.09,-113.58 1054.7,-105.05 1136.7,-136.37 1157.2,-144.2 1176.7,-159.39 1191,-172.53"/>
<polygon fill="#bf2121" stroke="black" points="1188.73,-175.2 1198.38,-179.56 1193.55,-170.13 1188.73,-175.2"/>
</g>
<!-- app_schemas&#45;&gt;app_services -->
<g id="edge8" class="edge">
<title>app_schemas&#45;&gt;app_services</title><style>.edge>path:hover{stroke-width:8}</style>
<path fill="none" stroke="black" d="M884,-168.92C907.01,-180.26 941.21,-194.95 973.14,-200.37"/>
</g>
<!-- app_services&#45;&gt;app_routers -->
<g id="edge9" class="edge">
<title>app_services&#45;&gt;app_routers</title><style>.edge>path:hover{stroke-width:8}</style>
<path fill="none" stroke="black" d="M1136.98,-196.37C1145.2,-196.37 1153.84,-196.37 1162.23,-196.37"/>
<polygon fill="#732626" stroke="black" points="1162.32,-199.87 1172.32,-196.37 1162.32,-192.87 1162.32,-199.87"/>
</g>
<!-- x12_edi_tools -->
<g id="node7" class="node">
<title>x12_edi_tools</title><style>.edge>path:hover{stroke-width:8}</style>
<ellipse fill="#04b3b3" stroke="black" cx="685.59" cy="-162.37" rx="49.4" ry="18"/>
<text text-anchor="middle" x="685.59" y="-159.87" font-family="Helvetica,sans-Serif" font-size="10.00" fill="#ffffff">x12_edi_tools</text>
</g>
<!-- x12_edi_tools&#45;&gt;app_schemas -->
<g id="edge10" class="edge">
<title>x12_edi_tools&#45;&gt;app_schemas</title><style>.edge>path:hover{stroke-width:8}</style>
<path fill="none" stroke="black" d="M734.89,-160.91C746.73,-160.95 759.36,-161.34 771.04,-162.37"/>
<path fill="none" stroke="black" d="M772.04,-162.37C781.64,-163.22 791.85,-163.08 801.72,-162.41"/>
<polygon fill="#04b3b3" stroke="black" points="802.16,-165.89 811.82,-161.54 801.56,-158.91 802.16,-165.89"/>
</g>
<!-- x12_edi_tools&#45;&gt;app_services -->
<g id="edge11" class="edge">
<title>x12_edi_tools&#45;&gt;app_services</title><style>.edge>path:hover{stroke-width:8}</style>
<path fill="none" stroke="black" d="M772.04,-162.37C790.06,-163.96 791.64,-173.73 808.04,-181.37 828.35,-190.83 832.46,-197.89 854.72,-200.37"/>
<path fill="none" stroke="black" d="M856.72,-200.37C908.14,-206.1 922.13,-191.71 973.14,-200.37"/>
</g>
<!-- x12_edi_tools_common -->
<g id="node8" class="node">
<title>x12_edi_tools_common</title><style>.edge>path:hover{stroke-width:8}</style>
<ellipse fill="#0ce9e9" stroke="black" cx="61.52" cy="-187.37" rx="61.54" ry="21.43"/>
<text text-anchor="middle" x="61.52" y="-190.37" font-family="Helvetica,sans-Serif" font-size="10.00" fill="#000000">x12_edi_tools.</text>
<text text-anchor="middle" x="61.52" y="-179.37" font-family="Helvetica,sans-Serif" font-size="10.00" fill="#000000">common</text>
</g>
<!-- x12_edi_tools_common&#45;&gt;app_services -->
<g id="edge12" class="edge">
<title>x12_edi_tools_common&#45;&gt;app_services</title><style>.edge>path:hover{stroke-width:8}</style>
<path fill="none" stroke="black" d="M380.59,-331.37C450.3,-334.84 468.19,-338.44 537.63,-331.37"/>
</g>
<!-- x12_edi_tools_common&#45;&gt;x12_edi_tools -->
<g id="edge13" class="edge">
<title>x12_edi_tools_common&#45;&gt;x12_edi_tools</title><style>.edge>path:hover{stroke-width:8}</style>
<path fill="none" stroke="black" d="M75.67,-166.65C92.25,-142.14 122.98,-101.74 159.04,-78.37 182.69,-63.04 192.33,-66.69 219.55,-59.37"/>
<path fill="none" stroke="black" d="M221.55,-59.37C288.96,-41.27 310.18,-45.53 378.59,-59.37"/>
<path fill="none" stroke="black" d="M380.59,-59.37C408.22,-64.96 418.97,-60.93 441.11,-78.37 465.54,-97.62 452.68,-119.13 477.11,-138.37 499.25,-155.82 509.82,-152.73 537.63,-157.37"/>
<path fill="none" stroke="black" d="M539.63,-157.37C567.81,-162.08 599.48,-163.59 626.01,-163.82"/>
<polygon fill="#0ce9e9" stroke="black" points="626.28,-167.33 636.29,-163.85 626.3,-160.33 626.28,-167.33"/>
</g>
<!-- x12_edi_tools_models -->
<g id="node11" class="node">
<title>x12_edi_tools_models</title><style>.edge>path:hover{stroke-width:8}</style>
<ellipse fill="#0bdfdf" stroke="black" cx="220.55" cy="-187.37" rx="61.54" ry="21.43"/>
<text text-anchor="middle" x="220.55" y="-190.37" font-family="Helvetica,sans-Serif" font-size="10.00" fill="#000000">x12_edi_tools.</text>
<text text-anchor="middle" x="220.55" y="-179.37" font-family="Helvetica,sans-Serif" font-size="10.00" fill="#000000">models</text>
</g>
<!-- x12_edi_tools_common&#45;&gt;x12_edi_tools_models -->
<g id="edge14" class="edge">
<title>x12_edi_tools_common&#45;&gt;x12_edi_tools_models</title><style>.edge>path:hover{stroke-width:8}</style>
<path fill="none" stroke="black" d="M123.23,-187.37C131.67,-187.37 140.4,-187.37 148.99,-187.37"/>
<polygon fill="#0ce9e9" stroke="black" points="149,-190.87 159,-187.37 149,-183.87 149,-190.87"/>
</g>
<!-- x12_edi_tools_parser -->
<g id="node12" class="node">
<title>x12_edi_tools_parser</title><style>.edge>path:hover{stroke-width:8}</style>
<ellipse fill="#2bacac" stroke="black" cx="379.59" cy="-108.37" rx="61.54" ry="21.43"/>
<text text-anchor="middle" x="379.59" y="-111.37" font-family="Helvetica,sans-Serif" font-size="10.00" fill="#000000">x12_edi_tools.</text>
<text text-anchor="middle" x="379.59" y="-100.37" font-family="Helvetica,sans-Serif" font-size="10.00" fill="#000000">parser</text>
</g>
<!-- x12_edi_tools_common&#45;&gt;x12_edi_tools_parser -->
<g id="edge15" class="edge">
<title>x12_edi_tools_common&#45;&gt;x12_edi_tools_parser</title><style>.edge>path:hover{stroke-width:8}</style>
<path fill="none" stroke="black" d="M221.55,-59.37C242.41,-53.77 293.4,-71.88 331.66,-87.64"/>
<polygon fill="#0ce9e9" stroke="black" points="330.51,-90.95 341.09,-91.58 333.21,-84.49 330.51,-90.95"/>
</g>
<!-- x12_edi_tools_validator -->
<g id="node14" class="node">
<title>x12_edi_tools_validator</title><style>.edge>path:hover{stroke-width:8}</style>
<ellipse fill="#1eaeae" stroke="black" cx="538.63" cy="-282.37" rx="61.54" ry="21.43"/>
<text text-anchor="middle" x="538.63" y="-285.37" font-family="Helvetica,sans-Serif" font-size="10.00" fill="#000000">x12_edi_tools.</text>
<text text-anchor="middle" x="538.63" y="-274.37" font-family="Helvetica,sans-Serif" font-size="10.00" fill="#000000">validator</text>
</g>
<!-- x12_edi_tools_common&#45;&gt;x12_edi_tools_validator -->
<g id="edge16" class="edge">
<title>x12_edi_tools_common&#45;&gt;x12_edi_tools_validator</title><style>.edge>path:hover{stroke-width:8}</style>
<path fill="none" stroke="black" d="M85.13,-207.29C134.95,-248.9 259.24,-340.51 378.59,-331.37"/>
<path fill="none" stroke="black" d="M380.59,-331.37C420.79,-333.37 464.32,-318.32 495.33,-304.39"/>
<polygon fill="#0ce9e9" stroke="black" points="496.93,-307.5 504.53,-300.12 493.99,-301.15 496.93,-307.5"/>
</g>
<!-- x12_edi_tools_config -->
<g id="node9" class="node">
<title>x12_edi_tools_config</title><style>.edge>path:hover{stroke-width:8}</style>
<ellipse fill="#3bcece" stroke="black" cx="538.63" cy="-108.37" rx="61.54" ry="21.43"/>
<text text-anchor="middle" x="538.63" y="-111.37" font-family="Helvetica,sans-Serif" font-size="10.00" fill="#000000">x12_edi_tools.</text>
<text text-anchor="middle" x="538.63" y="-100.37" font-family="Helvetica,sans-Serif" font-size="10.00" fill="#000000">config</text>
</g>
<!-- x12_edi_tools_config&#45;&gt;app_schemas -->
<g id="edge17" class="edge">
<title>x12_edi_tools_config&#45;&gt;app_schemas</title><style>.edge>path:hover{stroke-width:8}</style>
<path fill="none" stroke="black" d="M772.04,-108.37C782.79,-109.81 804.46,-122.01 822.92,-133.49"/>
<polygon fill="#3bcece" stroke="black" points="821.06,-136.45 831.39,-138.84 824.8,-130.54 821.06,-136.45"/>
</g>
<!-- x12_edi_tools_config&#45;&gt;app_services -->
<g id="edge18" class="edge">
<title>x12_edi_tools_config&#45;&gt;app_services</title><style>.edge>path:hover{stroke-width:8}</style>
<path fill="none" stroke="black" d="M598.89,-104.05C645.81,-101.67 712.91,-100.57 771.04,-108.37"/>
<path fill="none" stroke="black" d="M772.04,-108.37C808.31,-114.31 822.59,-90.54 854.72,-108.37"/>
</g>
<!-- x12_edi_tools_config&#45;&gt;x12_edi_tools -->
<g id="edge19" class="edge">
<title>x12_edi_tools_config&#45;&gt;x12_edi_tools</title><style>.edge>path:hover{stroke-width:8}</style>
<path fill="none" stroke="black" d="M581.17,-123.85C599.84,-130.8 621.87,-139.01 640.8,-146.06"/>
<polygon fill="#3bcece" stroke="black" points="639.79,-149.42 650.38,-149.63 642.23,-142.86 639.79,-149.42"/>
</g>
<!-- x12_edi_tools_exceptions -->
<g id="node10" class="node">
<title>x12_edi_tools_exceptions</title><style>.edge>path:hover{stroke-width:8}</style>
<ellipse fill="#22e7e7" stroke="black" cx="220.55" cy="-108.37" rx="61.54" ry="21.43"/>
<text text-anchor="middle" x="220.55" y="-111.37" font-family="Helvetica,sans-Serif" font-size="10.00" fill="#000000">x12_edi_tools.</text>
<text text-anchor="middle" x="220.55" y="-100.37" font-family="Helvetica,sans-Serif" font-size="10.00" fill="#000000">exceptions</text>
</g>
<!-- x12_edi_tools_exceptions&#45;&gt;app_services -->
<g id="edge20" class="edge">
<title>x12_edi_tools_exceptions&#45;&gt;app_services</title><style>.edge>path:hover{stroke-width:8}</style>
<path fill="none" stroke="black" d="M254.4,-90.46C263.52,-85.2 273.31,-79.27 282.07,-73.37 298.89,-62.05 298.9,-51.95 318.07,-45.37 545.22,32.57 644.75,8.17 854.72,-108.37"/>
<path fill="none" stroke="black" d="M856.72,-108.37C876.81,-118.28 886.05,-113.21 903.41,-127.37 925.75,-145.61 918.26,-161.75 939.41,-181.37 952.02,-193.07 956.17,-197.49 973.14,-200.37"/>
<path fill="none" stroke="black" d="M975.14,-200.37C995.11,-203.76 1017.31,-203.83 1036.82,-202.67"/>
<polygon fill="#22e7e7" stroke="black" points="1037.32,-206.15 1047.04,-201.94 1036.82,-199.16 1037.32,-206.15"/>
</g>
<!-- x12_edi_tools_exceptions&#45;&gt;x12_edi_tools -->
<g id="edge21" class="edge">
<title>x12_edi_tools_exceptions&#45;&gt;x12_edi_tools</title><style>.edge>path:hover{stroke-width:8}</style>
<path fill="none" stroke="black" d="M250.89,-89.85C282.09,-72.39 333.1,-50.17 378.59,-59.37"/>
</g>
<!-- x12_edi_tools_exceptions&#45;&gt;x12_edi_tools_parser -->
<g id="edge22" class="edge">
<title>x12_edi_tools_exceptions&#45;&gt;x12_edi_tools_parser</title><style>.edge>path:hover{stroke-width:8}</style>
<path fill="none" stroke="black" d="M282.27,-108.37C290.71,-108.37 299.43,-108.37 308.03,-108.37"/>
<polygon fill="#22e7e7" stroke="black" points="308.04,-111.87 318.04,-108.37 308.04,-104.87 308.04,-111.87"/>
</g>
<!-- x12_edi_tools_payers -->
<g id="node13" class="node">
<title>x12_edi_tools_payers</title><style>.edge>path:hover{stroke-width:8}</style>
<ellipse fill="#20b6b6" stroke="black" cx="379.59" cy="-206.37" rx="61.54" ry="21.43"/>
<text text-anchor="middle" x="379.59" y="-209.37" font-family="Helvetica,sans-Serif" font-size="10.00" fill="#000000">x12_edi_tools.</text>
<text text-anchor="middle" x="379.59" y="-198.37" font-family="Helvetica,sans-Serif" font-size="10.00" fill="#000000">payers</text>
</g>
<!-- x12_edi_tools_exceptions&#45;&gt;x12_edi_tools_payers -->
<g id="edge23" class="edge">
<title>x12_edi_tools_exceptions&#45;&gt;x12_edi_tools_payers</title><style>.edge>path:hover{stroke-width:8}</style>
<path fill="none" stroke="black" d="M251.09,-126.8C276.35,-142.56 312.85,-165.35 340.34,-182.5"/>
<polygon fill="#22e7e7" stroke="black" points="338.58,-185.53 348.92,-187.85 342.29,-179.59 338.58,-185.53"/>
</g>
<!-- x12_edi_tools_exceptions&#45;&gt;x12_edi_tools_validator -->
<g id="edge24" class="edge">
<title>x12_edi_tools_exceptions&#45;&gt;x12_edi_tools_validator</title><style>.edge>path:hover{stroke-width:8}</style>
<path fill="none" stroke="black" d="M250.19,-127.22C261.19,-135.5 273.22,-145.93 282.07,-157.37 305.7,-187.88 287.95,-212.26 318.07,-236.37 341.15,-254.84 414.06,-267.58 469.59,-274.89"/>
<polygon fill="#22e7e7" stroke="black" points="469.37,-278.39 479.74,-276.19 470.26,-271.45 469.37,-278.39"/>
</g>
<!-- x12_edi_tools_models&#45;&gt;app_services -->
<g id="edge25" class="edge">
<title>x12_edi_tools_models&#45;&gt;app_services</title><style>.edge>path:hover{stroke-width:8}</style>
<path fill="none" stroke="black" d="M380.59,-293.37C414.48,-305.22 501.91,-335.01 537.63,-331.37"/>
<path fill="none" stroke="black" d="M539.63,-331.37C558.03,-329.5 682.06,-282.94 684.59,-282.37"/>
</g>
<!-- x12_edi_tools_models&#45;&gt;x12_edi_tools -->
<g id="edge26" class="edge">
<title>x12_edi_tools_models&#45;&gt;x12_edi_tools</title><style>.edge>path:hover{stroke-width:8}</style>
<path fill="none" stroke="black" d="M270.57,-174.85C332.95,-160.72 443.86,-141.62 537.63,-157.37"/>
</g>
<!-- x12_edi_tools_models&#45;&gt;x12_edi_tools_parser -->
<g id="edge27" class="edge">
<title>x12_edi_tools_models&#45;&gt;x12_edi_tools_parser</title><style>.edge>path:hover{stroke-width:8}</style>
<path fill="none" stroke="black" d="M256.02,-170.03C279.15,-158.4 309.84,-142.96 334.72,-130.44"/>
<polygon fill="#0bdfdf" stroke="black" points="336.58,-133.43 343.94,-125.8 333.43,-127.17 336.58,-133.43"/>
</g>
<!-- x12_edi_tools_models&#45;&gt;x12_edi_tools_payers -->
<g id="edge28" class="edge">
<title>x12_edi_tools_models&#45;&gt;x12_edi_tools_payers</title><style>.edge>path:hover{stroke-width:8}</style>
<path fill="none" stroke="black" d="M279.14,-194.34C289.55,-195.6 300.5,-196.92 311.16,-198.21"/>
<polygon fill="#0bdfdf" stroke="black" points="310.93,-201.71 321.28,-199.44 311.77,-194.76 310.93,-201.71"/>
</g>
<!-- x12_edi_tools_models&#45;&gt;x12_edi_tools_validator -->
<g id="edge29" class="edge">
<title>x12_edi_tools_models&#45;&gt;x12_edi_tools_validator</title><style>.edge>path:hover{stroke-width:8}</style>
<path fill="none" stroke="black" d="M241.13,-207.4C259.64,-225.46 288.86,-251.82 318.07,-269.37 342.88,-284.27 351.28,-283.82 378.59,-293.37"/>
<path fill="none" stroke="black" d="M380.59,-293.37C412.23,-304.43 449.59,-302.37 479.94,-297.22"/>
<polygon fill="#0bdfdf" stroke="black" points="480.74,-300.63 489.94,-295.37 479.47,-293.75 480.74,-300.63"/>
</g>
<!-- x12_edi_tools_parser&#45;&gt;app_services -->
<g id="edge30" class="edge">
<title>x12_edi_tools_parser&#45;&gt;app_services</title><style>.edge>path:hover{stroke-width:8}</style>
<path fill="none" stroke="black" d="M406.74,-127.56C425.67,-140.92 452.2,-158.56 477.11,-171.37 529.31,-198.22 548.82,-190.9 600.15,-219.37 641.09,-242.09 639.96,-296.54 684.59,-282.37"/>
<path fill="none" stroke="black" d="M686.59,-282.37C765.83,-257.21 772.1,-191.16 854.72,-200.37"/>
</g>
<!-- x12_edi_tools_parser&#45;&gt;x12_edi_tools -->
<g id="edge31" class="edge">
<title>x12_edi_tools_parser&#45;&gt;x12_edi_tools</title><style>.edge>path:hover{stroke-width:8}</style>
<path fill="none" stroke="black" d="M420.85,-124.27C452.14,-135.8 496.93,-150.53 537.63,-157.37"/>
</g>
<!-- x12_edi_tools_payers&#45;&gt;app_services -->
<g id="edge32" class="edge">
<title>x12_edi_tools_payers&#45;&gt;app_services</title><style>.edge>path:hover{stroke-width:8}</style>
<path fill="none" stroke="black" d="M539.63,-233.37C567.79,-234.69 573.41,-243.43 600.15,-252.37 637.92,-265.01 646.63,-294.43 684.59,-282.37"/>
</g>
<!-- x12_edi_tools_payers&#45;&gt;x12_edi_tools -->
<g id="edge33" class="edge">
<title>x12_edi_tools_payers&#45;&gt;x12_edi_tools</title><style>.edge>path:hover{stroke-width:8}</style>
<path fill="none" stroke="black" d="M430.81,-218.26C461.46,-224.7 501.57,-231.69 537.63,-233.37"/>
<path fill="none" stroke="black" d="M539.63,-233.37C584.53,-235.47 630.08,-207.06 657.83,-185.56"/>
<polygon fill="#20b6b6" stroke="black" points="660.23,-188.12 665.85,-179.14 655.86,-182.65 660.23,-188.12"/>
</g>
<!-- x12_edi_tools_payers&#45;&gt;x12_edi_tools_validator -->
<g id="edge34" class="edge">
<title>x12_edi_tools_payers&#45;&gt;x12_edi_tools_validator</title><style>.edge>path:hover{stroke-width:8}</style>
<path fill="none" stroke="black" d="M425.27,-228C446.5,-238.27 471.8,-250.51 493.01,-260.78"/>
<polygon fill="#20b6b6" stroke="black" points="426.75,-224.82 416.23,-223.62 423.7,-231.12 426.75,-224.82"/>
<polygon fill="#20b6b6" stroke="black" points="491.61,-263.99 502.14,-265.19 494.66,-257.69 491.61,-263.99"/>
</g>
<!-- x12_edi_tools_validator&#45;&gt;app_services -->
<g id="edge35" class="edge">
<title>x12_edi_tools_validator&#45;&gt;app_services</title><style>.edge>path:hover{stroke-width:8}</style>
<path fill="none" stroke="black" d="M595.91,-290.21C623.28,-292.06 656.29,-291.36 684.59,-282.37"/>
</g>
<!-- x12_edi_tools_validator&#45;&gt;x12_edi_tools -->
<g id="edge36" class="edge">
<title>x12_edi_tools_validator&#45;&gt;x12_edi_tools</title><style>.edge>path:hover{stroke-width:8}</style>
<path fill="none" stroke="black" d="M573.62,-264.81C582.56,-259.64 591.97,-253.67 600.15,-247.37 623.44,-229.43 646.75,-205.38 662.97,-187.45"/>
<polygon fill="#1eaeae" stroke="black" points="665.85,-189.47 669.89,-179.68 660.62,-184.82 665.85,-189.47"/>
</g>
</g>
</svg>
